<?xml version="1.0" encoding="utf-8"?>
<!-- Generator: Adobe Illustrator 24.0.0, SVG Export Plug-In . SVG Version: 6.00 Build 0)  -->
<svg version="1.1" id="Capa_1" xmlns="http://www.w3.org/2000/svg" xmlns:xlink="http://www.w3.org/1999/xlink" x="0px" y="0px"
	 viewBox="0 0 250.1 62.5" style="enable-background:new 0 0 250.1 62.5;" xml:space="preserve">
<style type="text/css">
	.st0{fill:#1560A5;}
</style>
<g>
	<path class="st0" d="M19.9,49.1l-0.3-3.4c-0.2,0.3-0.5,0.6-1,1.1c-0.4,0.4-1.4,1-3,1.8s-3.2,1.1-5,1.1c-3,0-5.5-1-7.6-3.1
		c-2-2-3-4.5-3-7.5c0-3.3,1.2-5.9,3.5-7.7c2.3-1.9,5.4-3,9.2-3.3l6.2-0.5v-2.4c0-1.4-0.4-2.5-1.2-3.4c-0.8-0.9-1.9-1.3-3.2-1.3
		s-2.3,0.4-3.2,1.1c-0.8,0.7-1.3,1.6-1.4,2.8H2c0-3.1,1.2-5.7,3.6-7.9s5.3-3.3,8.8-3.3c4,0,7.1,1.1,9.3,3.4s3.3,5.2,3.3,8.6v24
		L19.9,49.1L19.9,49.1z M12.7,42.9c1.6,0,3-0.6,4.3-1.7s2-2.3,2-3.4v-4l-5.7,0.4c-1.6,0.1-2.8,0.6-3.7,1.4c-0.9,0.8-1.3,1.9-1.3,3.3
		c0,1,0.4,2,1.2,2.8C10.2,42.5,11.3,42.9,12.7,42.9z"/>
	<path class="st0" d="M32.2,57.4l5.6-5.1c0.1,0.2,0.4,0.5,0.7,0.8s1.1,0.7,2.2,1.3c1.1,0.5,2.4,0.8,3.7,0.8c1.6,0,3-0.5,4.1-1.4
		s1.7-2.2,1.7-3.8v-4.8c-0.1,0.2-0.4,0.5-0.7,0.8s-1,0.8-2.2,1.3c-1.2,0.6-2.5,0.8-3.9,0.8c-3.3,0-6.1-1.1-8.4-3.3s-3.4-5.1-3.4-8.7
		V25.3c0-3.5,1.2-6.4,3.5-8.6s5.1-3.4,8.4-3.4c1.5,0,2.8,0.3,4,0.8s2.1,1.1,2.6,1.6l0.7,0.8l0.2-2.6h7.3v35.6c0,3.9-1.3,7-3.8,9.4
		c-2.5,2.4-5.8,3.6-9.8,3.6c-1.6,0-3.2-0.2-4.6-0.5s-2.7-0.8-3.6-1.3c-0.9-0.5-1.8-1-2.4-1.5c-0.7-0.5-1.2-0.9-1.4-1.3L32.2,57.4z
		 M39.8,25.5v10.3c0,1.6,0.5,2.8,1.5,3.7c1,0.9,2.2,1.4,3.7,1.4s2.7-0.5,3.7-1.4c1-0.9,1.5-2.2,1.5-3.7V25.5c0-1.6-0.5-2.8-1.5-3.7
		s-2.2-1.4-3.7-1.4c-1.4,0-2.6,0.5-3.6,1.4C40.3,22.7,39.8,24,39.8,25.5z"/>
	<path class="st0" d="M83.5,14.5l-2.4,6.9c-0.9-0.5-2.2-0.8-3.7-0.8c-1.6,0-3,0.7-4,2.1c-1.1,1.4-1.6,3.4-1.6,6.1v20.4h-8.2V13.9
		h7.7l0.1,3.9c0-0.1,0.1-0.3,0.3-0.5c0.1-0.2,0.4-0.5,0.8-1.1c0.4-0.5,0.9-1,1.4-1.4c0.5-0.3,1.1-0.6,1.9-1c0.8-0.3,1.6-0.5,2.5-0.5
		s1.8,0.1,2.7,0.3c0.9,0.2,1.5,0.4,1.9,0.6L83.5,14.5z"/>
	<path class="st0" d="M110.6,25.3v12.5c0,3.4-1.2,6.3-3.6,8.6s-5.6,3.5-9.5,3.5s-7.1-1.1-9.6-3.5c-2.4-2.3-3.7-5.2-3.7-8.6V25.3
		c0-3.4,1.2-6.3,3.7-8.6c2.4-2.3,5.6-3.5,9.6-3.5c3.9,0,7.1,1.2,9.5,3.5S110.6,21.8,110.6,25.3z M102.5,37.4V25.7
		c0-1.6-0.5-2.8-1.5-3.7c-1-0.9-2.2-1.4-3.7-1.4s-2.7,0.5-3.7,1.4c-1,0.9-1.5,2.2-1.5,3.7v11.7c0,1.6,0.5,2.8,1.5,3.7
		s2.2,1.4,3.7,1.4c1.4,0,2.6-0.5,3.6-1.4C102,40.2,102.5,38.9,102.5,37.4z"/>
	<path class="st0" d="M149.4,49.1V25.6c0-1.4-0.4-2.5-1.1-3.4c-0.7-0.9-1.7-1.4-2.8-1.4c-1.4,0-2.6,0.5-3.6,1.5s-1.4,2.2-1.4,3.7
		v23.2h-8.1V25.6c0-1.4-0.4-2.5-1.1-3.5c-0.7-0.9-1.7-1.4-2.9-1.4c-1.3,0-2.5,0.5-3.5,1.6c-1,1.1-1.5,2.3-1.5,3.7v23.1h-8.1V13.9
		h7.6l0.4,3.5c0.2-0.3,0.5-0.6,0.8-1.1c0.4-0.4,1.2-1,2.5-1.8c1.3-0.7,2.7-1.1,4.1-1.1c1.3,0,2.5,0.3,3.7,0.9
		c1.1,0.6,1.9,1.2,2.3,1.8l0.7,0.8c0.3-0.3,0.7-0.6,1.1-1c0.5-0.4,1.4-0.9,2.9-1.6c1.5-0.7,3-1,4.5-1c3.3,0,6.1,1.1,8.3,3.4
		s3.3,5.2,3.3,8.7v23.8L149.4,49.1L149.4,49.1z"/>
	<path class="st0" d="M180.1,38.8h8.2c-0.4,3.3-1.8,6-4.3,8s-5.5,3-9,3c-3.9,0-7-1.1-9.4-3.5c-2.4-2.3-3.7-5.2-3.7-8.6V25.3
		c0-3.4,1.2-6.2,3.7-8.6s5.6-3.5,9.5-3.5s7,1.1,9.4,3.4s3.6,5.1,3.6,8.5v9.1h-18.2v3.5c0,1.5,0.5,2.7,1.4,3.7s2.2,1.4,3.6,1.4
		c1.3,0,2.4-0.3,3.2-1c0.8-0.7,1.4-1.3,1.6-2L180.1,38.8z M169.9,25.3v2.3h10.2v-2.3c0-1.5-0.5-2.6-1.4-3.5c-1-0.9-2.2-1.3-3.6-1.3
		c-1.4,0-2.6,0.5-3.6,1.4C170.5,22.7,169.9,23.9,169.9,25.3z"/>
	<path class="st0" d="M193,57.4l5.6-5.1c0.1,0.2,0.4,0.5,0.7,0.8s1.1,0.7,2.2,1.3c1.1,0.5,2.4,0.8,3.7,0.8c1.6,0,3-0.5,4.1-1.4
		s1.7-2.2,1.7-3.8v-4.8c-0.1,0.2-0.4,0.5-0.7,0.8s-1,0.8-2.2,1.3c-1.2,0.6-2.5,0.8-3.9,0.8c-3.3,0-6.1-1.1-8.4-3.3s-3.4-5.1-3.4-8.7
		V25.3c0-3.5,1.2-6.4,3.5-8.6s5.1-3.4,8.4-3.4c1.5,0,2.8,0.3,4,0.8s2.1,1.1,2.6,1.6l0.7,0.8l0.1-2.7h7.3v35.6c0,3.9-1.3,7-3.8,9.4
		s-5.8,3.6-9.8,3.6c-1.6,0-3.2-0.2-4.6-0.5s-2.7-0.8-3.6-1.3s-1.8-1-2.4-1.5c-0.7-0.5-1.2-0.9-1.4-1.3L193,57.4z M200.7,25.5v10.3
		c0,1.6,0.5,2.8,1.5,3.7c1,0.9,2.2,1.4,3.7,1.4s2.7-0.5,3.7-1.4c1-0.9,1.5-2.2,1.5-3.7V25.5c0-1.6-0.5-2.8-1.5-3.7s-2.2-1.4-3.7-1.4
		c-1.4,0-2.6,0.5-3.6,1.4C201.2,22.7,200.7,24,200.7,25.5z"/>
	<path class="st0" d="M242.8,49.1l-0.3-3.4c-0.2,0.3-0.5,0.6-1,1.1c-0.4,0.4-1.4,1-3,1.8c-1.5,0.7-3.2,1.1-5,1.1c-3,0-5.5-1-7.6-3.1
		c-2.1-2-3.1-4.5-3.1-7.5c0-3.3,1.2-5.9,3.5-7.7c2.3-1.9,5.4-3,9.2-3.3l6.2-0.5v-2.4c0-1.4-0.4-2.5-1.2-3.4s-1.9-1.3-3.2-1.3
		s-2.3,0.4-3.2,1.1c-0.9,0.7-1.4,1.7-1.5,2.9H225c0-3.1,1.2-5.7,3.6-7.9c2.4-2.2,5.3-3.3,8.9-3.3c4,0,7.1,1.1,9.3,3.4
		s3.3,5.2,3.3,8.6v23.9L242.8,49.1L242.8,49.1z M235.6,42.9c1.6,0,3-0.6,4.3-1.7s2-2.3,2-3.4v-4l-5.6,0.4c-1.6,0.1-2.8,0.6-3.7,1.4
		c-0.9,0.8-1.3,1.9-1.3,3.3c0,1,0.4,2,1.2,2.8C233.2,42.5,234.2,42.9,235.6,42.9z"/>
</g>
</svg>
